<svg width="20" height="20" viewBox="0 0 20 20" fill="none" xmlns="http://www.w3.org/2000/svg">
<g clip-path="url(#clip0_0_295)">
<rect width="19.09" height="20" rx="9.545" fill="#D80909"/>
<path d="M5.59027 5.00001C5.43485 4.99914 5.28466 5.05938 5.17376 5.16941C5.06287 5.27943 5 5.42962 5 5.58592C5 5.74309 5.06287 5.8924 5.17376 6.0033L8.94231 9.77185L5.17376 13.5413C4.94587 13.7709 4.94587 14.1403 5.17376 14.3699C5.4034 14.5987 5.77364 14.5987 6.00327 14.3699L9.77272 10.6014L13.5413 14.3699C13.6522 14.4808 13.8015 14.5437 13.9578 14.5437C14.1141 14.5437 14.2643 14.4808 14.3743 14.3699C14.6031 14.1403 14.6031 13.7701 14.3743 13.5404L10.6048 9.77098L14.3743 6.00242C14.4861 5.89153 14.5481 5.74308 14.5481 5.58592C14.5481 5.42962 14.4861 5.27943 14.3743 5.16941C14.2634 5.05938 14.1132 4.99914 13.9578 5.00001C13.8015 4.99914 13.6513 5.05938 13.5404 5.16941L9.77185 8.93885L6.0024 5.16941C5.89238 5.06113 5.74484 5.00001 5.59027 5.00001Z" fill="white"/>
</g>
<defs>
<clipPath id="clip0_0_295">
<rect width="19.09" height="20" rx="9.545" fill="white"/>
</clipPath>
</defs>
</svg>
