<svg width="18" height="15" viewBox="0 0 18 15" fill="none" xmlns="http://www.w3.org/2000/svg">
<path d="M1.90399 14.3527C1.43253 14.3527 1.03347 14.1893 0.706799 13.8627C0.380131 13.536 0.216797 13.1369 0.216797 12.6655V2.03985C0.216797 1.5684 0.380131 1.16933 0.706799 0.842663C1.03347 0.515995 1.43253 0.352661 1.90399 0.352661H16.263C16.7344 0.352661 17.1335 0.515995 17.4601 0.842663C17.7868 1.16933 17.9501 1.5684 17.9501 2.03985V12.6655C17.9501 13.1369 17.7868 13.536 17.4601 13.8627C17.1335 14.1893 16.7344 14.3527 16.263 14.3527H1.90399ZM9.08347 7.87314L1.61678 3.09877V12.6655C1.61678 12.7492 1.64371 12.818 1.69756 12.8719C1.75141 12.9258 1.82022 12.9527 1.90399 12.9527H16.263C16.3467 12.9527 16.4155 12.9258 16.4694 12.8719C16.5232 12.818 16.5502 12.7492 16.5502 12.6655V3.09877L9.08347 7.87314ZM9.08347 6.41932L16.4066 1.75264H1.76037L9.08347 6.41932ZM1.61678 3.09877V1.75264V12.6655C1.61678 12.7492 1.64371 12.818 1.69756 12.8719C1.75141 12.9258 1.82022 12.9527 1.90399 12.9527H1.61678V3.09877Z" fill="#9AA5B6"/>
</svg>
