<svg width="51" height="50" viewBox="0 0 51 50" fill="none" xmlns="http://www.w3.org/2000/svg">
<g clip-path="url(#clip0_0_157)">
<path d="M25.8889 -0.198242C26.1465 -0.186126 26.4056 -0.099938 26.592 0.0488281L26.6672 0.116211L26.6692 0.119141L27.7708 1.28125C30.4616 4.13276 33.9435 7.93657 36.8918 11.9678C38.5769 14.2716 40.0912 16.655 41.1848 18.9805C42.2775 21.3041 42.9563 23.5834 42.9563 25.6768C42.9561 34.7122 35.9309 42.1852 26.9202 42.7793V49.0469C26.9202 49.4206 26.7747 49.7151 26.5461 49.9131C26.3217 50.1075 26.0289 50.2001 25.7434 50.2002C25.4577 50.2002 25.1642 50.1076 24.9397 49.9131C24.7111 49.7151 24.5657 49.4205 24.5657 49.0469V42.7773C15.6512 42.0943 8.72994 34.6182 8.72974 25.6768C8.72974 23.6073 9.40877 21.328 10.5012 18.9941C11.5946 16.6584 13.1084 14.2546 14.7932 11.9326C18.1625 7.28893 22.2275 2.95444 25.0149 0.117188L25.0168 0.115234C25.2619 -0.127767 25.591 -0.212165 25.8889 -0.198242ZM25.844 2.69629C23.3561 5.24067 19.7058 9.19313 16.6555 13.3896C15.1011 15.5282 13.7056 17.7261 12.6995 19.8301C11.6921 21.9367 11.0823 23.9346 11.0823 25.6768C11.0825 33.3216 16.9533 39.7348 24.5657 40.415V34.7393L16.595 24.8242C16.3658 24.5375 16.2931 24.2228 16.345 23.9307C16.396 23.6435 16.5643 23.3937 16.7874 23.2207C17.2087 22.8942 17.8568 22.822 18.3635 23.29L18.4631 23.3916L18.47 23.3994L24.5676 30.9717L24.5657 18.833C24.5657 18.4594 24.7112 18.1648 24.9397 17.9668C25.1642 17.7723 25.4577 17.6797 25.7434 17.6797C26.0289 17.6798 26.3217 17.7724 26.5461 17.9668C26.7747 18.1648 26.9211 18.4593 26.9211 18.833V30.9736L33.01 23.4111L33.0989 23.3008C33.3126 23.0603 33.5739 22.9384 33.843 22.9199C34.1443 22.8993 34.4365 23.0093 34.6643 23.1875C34.8921 23.3657 35.0688 23.6223 35.1282 23.915C35.1887 24.2135 35.1241 24.5366 34.8909 24.8271L26.9211 34.7402V40.4219C34.6341 39.8365 40.6008 33.4206 40.6008 25.6797C40.6008 23.7935 39.9012 21.6261 38.7795 19.3691C37.6594 17.1152 36.1264 14.7882 34.4807 12.5879C31.276 8.30332 27.6536 4.51428 25.844 2.69629Z" fill="#3798FF" stroke="#208CFF" stroke-width="0.4"/>
</g>
<defs>
<clipPath id="clip0_0_157">
<rect width="50" height="50" fill="white" transform="translate(0.929932)"/>
</clipPath>
</defs>
</svg>
