<svg width="14" height="18" viewBox="0 0 14 18" fill="none" xmlns="http://www.w3.org/2000/svg">
<path d="M2.4529 17.5802C2.01812 17.5802 1.64677 17.4262 1.33885 17.1183C1.03092 16.8104 0.876953 16.439 0.876953 16.0042V7.8228C0.876953 7.38802 1.03092 7.01667 1.33885 6.70875C1.64677 6.40082 2.01812 6.24685 2.4529 6.24685H3.49235V4.50325C3.49235 3.41464 3.87404 2.48864 4.63742 1.72527C5.40081 0.961889 6.32681 0.5802 7.41543 0.5802C8.50404 0.5802 9.43005 0.961889 10.1934 1.72527C10.9568 2.48864 11.3385 3.41464 11.3385 4.50325V6.24685H12.3779C12.8127 6.24685 13.1841 6.40082 13.492 6.70875C13.7999 7.01667 13.9539 7.38802 13.9539 7.8228V16.0042C13.9539 16.439 13.7999 16.8104 13.492 17.1183C13.1841 17.4262 12.8127 17.5802 12.3779 17.5802H2.4529ZM2.4529 16.2725H12.3779C12.4562 16.2725 12.5205 16.2474 12.5708 16.1971C12.6211 16.1468 12.6462 16.0825 12.6462 16.0042V7.8228C12.6462 7.74456 12.6211 7.68029 12.5708 7.62998C12.5205 7.57968 12.4562 7.55453 12.3779 7.55453H2.4529C2.37466 7.55453 2.31039 7.57968 2.26008 7.62998C2.20978 7.68029 2.18463 7.74456 2.18463 7.8228V16.0042C2.18463 16.0825 2.20978 16.1468 2.26008 16.1971C2.31039 16.2474 2.37466 16.2725 2.4529 16.2725ZM7.41543 13.4392C7.83903 13.4392 8.1992 13.2908 8.49593 12.994C8.79268 12.6973 8.94105 12.3371 8.94105 11.9135C8.94105 11.4899 8.79268 11.1297 8.49593 10.833C8.1992 10.5363 7.83903 10.3879 7.41543 10.3879C6.99182 10.3879 6.63165 10.5363 6.33492 10.833C6.03817 11.1297 5.8898 11.4899 5.8898 11.9135C5.8898 12.3371 6.03817 12.6973 6.33492 12.994C6.63165 13.2908 6.99182 13.4392 7.41543 13.4392ZM4.80003 6.24685H10.0308V4.50325C10.0308 3.77675 9.77655 3.15923 9.268 2.65068C8.75945 2.14213 8.14193 1.88786 7.41543 1.88786C6.68893 1.88786 6.0714 2.14213 5.56285 2.65068C5.0543 3.15923 4.80003 3.77675 4.80003 4.50325V6.24685Z" fill="#9AA5B6"/>
</svg>
