<svg width="175" height="26" viewBox="0 0 175 26" fill="none" xmlns="http://www.w3.org/2000/svg">
<g clip-path="url(#clip0_0_455)">
<path d="M16.9003 15.586C16.8977 15.2865 16.8584 14.9729 16.7598 14.6915C16.4117 13.6996 15.385 13.1274 14.3546 13.3177C13.3463 13.5047 12.6061 14.3911 12.6043 15.4399C12.6007 18.0881 12.602 20.7362 12.6024 23.3842C12.5975 23.8006 12.4286 24.1982 12.1324 24.4909C11.8361 24.7837 11.4363 24.9478 11.0198 24.9478C10.6032 24.9478 10.2034 24.7837 9.90715 24.4909C9.61088 24.1982 9.44199 23.8006 9.43712 23.3842C9.43648 20.6816 9.43475 17.9794 9.44275 15.2767C9.44361 14.9143 9.48988 14.5457 9.56425 14.1904C10.0963 11.6392 12.5127 9.83908 15.1351 10.0277C17.748 10.2155 19.9073 12.3204 20.0314 14.9169C20.082 15.9687 20.0935 17.7782 20.0961 19.104C20.0978 19.9995 19.3506 20.7468 18.4547 20.7468C17.6012 20.7468 16.9035 20.0665 16.9003 19.2136C16.8958 18.0042 16.9113 16.7945 16.9003 15.5851" fill="#0582FF"/>
<path d="M28.0047 20.7475C27.1399 20.7475 26.4572 20.0697 26.4563 19.2058C26.455 18.047 26.4529 16.5144 26.4403 15.6216C26.4306 14.964 26.3982 14.2984 26.2855 13.652C25.1976 7.45972 19.6363 3.29189 13.4028 3.97695C8.07845 4.56109 3.77277 8.84669 3.14538 14.1919C3.05349 14.969 2.42545 15.5719 1.64241 15.5719H1.52458C0.623275 15.5719 -0.0763238 14.8419 0.00669408 13.9451C0.0412849 13.5729 0.0817128 13.214 0.126032 12.9631C1.67721 4.20991 10.6555 -1.31333 19.1207 1.41004C24.8857 3.26488 28.3078 7.32185 29.4324 13.2844C29.5915 14.129 29.6181 17.2133 29.6184 19.1424C29.6186 20.0324 28.895 20.7475 28.0047 20.7475Z" fill="#0582FF"/>
<path d="M21.6346 15.4803C21.6345 15.4803 21.6344 15.4803 21.6342 15.4802C21.6341 15.4802 21.634 15.4801 21.6339 15.48C21.6338 15.4799 21.6338 15.4798 21.6338 15.4796C21.6337 15.4795 21.6337 15.4794 21.6338 15.4792C21.6303 15.1049 21.6137 14.7278 21.5646 14.3576C21.044 10.4519 17.191 7.75494 13.3398 8.59343C10.0917 9.30096 7.86425 12.0738 7.85798 15.4338C7.85301 18.079 7.85647 20.7239 7.85755 23.3688C7.85769 23.7855 7.69326 24.1854 7.40003 24.4815C7.10679 24.7776 6.70847 24.946 6.29167 24.9501C6.08258 24.9521 5.87515 24.9128 5.68137 24.8342C5.48758 24.7557 5.31129 24.6396 5.16266 24.4926C5.01403 24.3455 4.89601 24.1705 4.81542 23.9777C4.73484 23.7848 4.69328 23.5779 4.69314 23.3688C4.69141 20.7544 4.68774 18.1401 4.70179 15.5263C4.70417 14.9107 4.76189 14.2889 4.86156 13.6801C5.74578 8.28959 11.1117 4.53582 16.4884 5.53142C21.3761 6.43691 24.7999 10.5464 24.8016 15.5091C24.8016 16.6421 24.8133 20.9863 24.8232 23.3915C24.8269 24.2748 24.0921 25.0149 23.2083 25.0149C22.7995 25.0149 22.4074 24.853 22.1179 24.5646C21.8283 24.2762 21.6649 23.8848 21.6634 23.4762L21.6355 15.481C21.6355 15.4805 21.6353 15.4803 21.6346 15.4803Z" fill="#0582FF"/>
</g>
<path d="M42.8477 20.5265C42.0939 20.5265 41.4394 20.4009 40.884 20.1496C40.3286 19.8984 39.8989 19.5414 39.5948 19.0785C39.2906 18.6025 39.1385 18.0537 39.1385 17.4323C39.1385 16.8372 39.2708 16.3083 39.5352 15.8455C39.7997 15.3694 40.2096 14.9727 40.765 14.6554C41.3204 14.338 42.0212 14.1132 42.8675 13.981L46.3981 13.4058V15.3893L43.3634 15.905C42.8477 15.9975 42.4642 16.1628 42.2129 16.4008C41.9617 16.6389 41.8361 16.9496 41.8361 17.3331C41.8361 17.7033 41.9749 18.0009 42.2526 18.2256C42.5435 18.4372 42.9006 18.543 43.3237 18.543C43.8658 18.543 44.3419 18.4306 44.7518 18.2058C45.1749 17.9678 45.4989 17.6438 45.7237 17.2339C45.9617 16.824 46.0807 16.3744 46.0807 15.8851V13.1083C46.0807 12.6455 45.8956 12.262 45.5254 11.9578C45.1683 11.6405 44.6923 11.4818 44.0973 11.4818C43.5419 11.4818 43.046 11.6339 42.6096 11.938C42.1865 12.2289 41.8758 12.619 41.6774 13.1083L39.5551 12.0769C39.7667 11.5083 40.0972 11.019 40.5468 10.6091C41.0096 10.1859 41.5518 9.85535 42.1733 9.61734C42.7948 9.37932 43.4691 9.26031 44.1964 9.26031C45.0824 9.26031 45.8625 9.4256 46.5369 9.75618C47.2113 10.0735 47.7336 10.5231 48.1039 11.1049C48.4874 11.6735 48.6791 12.3413 48.6791 13.1083V20.2885H46.2196V18.4438L46.775 18.4042C46.4973 18.867 46.1667 19.2571 45.7832 19.5744C45.3997 19.8785 44.9634 20.1166 44.4741 20.2885C43.9849 20.4471 43.4427 20.5265 42.8477 20.5265Z" fill="black"/>
<path d="M51.0807 20.2885V9.49833H53.5203V11.6207L53.322 11.2438C53.5732 10.5959 53.9831 10.1066 54.5517 9.77602C55.1336 9.43221 55.8079 9.26031 56.5749 9.26031C57.3683 9.26031 58.0691 9.43221 58.6774 9.77602C59.2989 10.1198 59.7815 10.6025 60.1253 11.224C60.4691 11.8322 60.641 12.5397 60.641 13.3463V20.2885H58.0427V13.9612C58.0427 13.4851 57.9501 13.0752 57.765 12.7314C57.5799 12.3876 57.322 12.1231 56.9914 11.938C56.6741 11.7397 56.2972 11.6405 55.8608 11.6405C55.4377 11.6405 55.0608 11.7397 54.7303 11.938C54.3997 12.1231 54.1418 12.3876 53.9567 12.7314C53.7716 13.0752 53.679 13.4851 53.679 13.9612V20.2885H51.0807Z" fill="black"/>
<path d="M66.6862 20.5265C65.8531 20.5265 65.1258 20.3414 64.5043 19.9711C63.8961 19.6009 63.4266 19.0852 63.0961 18.424C62.7787 17.7628 62.62 16.9893 62.62 16.1033V9.49833H65.2184V15.8851C65.2184 16.3347 65.3043 16.7314 65.4762 17.0752C65.6614 17.4058 65.9192 17.6703 66.2498 17.8686C66.5936 18.0537 66.9771 18.1463 67.4002 18.1463C67.8233 18.1463 68.2002 18.0537 68.5308 17.8686C68.8614 17.6703 69.1192 17.3992 69.3043 17.0554C69.4895 16.7116 69.582 16.3017 69.582 15.8256V9.49833H72.1804V20.2885H69.7209V18.1661L69.9391 18.543C69.6878 19.2042 69.2713 19.7 68.6895 20.0306C68.1209 20.3612 67.4531 20.5265 66.6862 20.5265Z" fill="black"/>
<path d="M74.5957 20.2885V9.49833H77.0354V11.8983L76.8371 11.5413C77.0883 10.7347 77.4784 10.1727 78.0073 9.85535C78.5495 9.538 79.1974 9.37932 79.9511 9.37932H80.5859V11.6802H79.6536C78.9131 11.6802 78.3181 11.9116 77.8685 12.3744C77.4189 12.824 77.1941 13.4587 77.1941 14.2785V20.2885H74.5957Z" fill="black"/>
<path d="M87.224 20.4075C86.0075 20.4075 85.062 20.0769 84.3876 19.4157C83.7265 18.7414 83.3959 17.7959 83.3959 16.5794V11.819H81.5314V9.49833H81.7298C82.2587 9.49833 82.6686 9.35948 82.9595 9.0818C83.2504 8.80411 83.3959 8.4008 83.3959 7.87187V7.03881H85.9943V9.49833H88.4736V11.819H85.9943V16.4405C85.9943 16.7975 86.0538 17.1017 86.1728 17.3529C86.305 17.6042 86.5033 17.7959 86.7678 17.9281C87.0455 18.0604 87.3959 18.1265 87.8191 18.1265C87.9116 18.1265 88.0174 18.1199 88.1364 18.1066C88.2686 18.0934 88.3943 18.0802 88.5133 18.067V20.2885C88.3281 20.3149 88.1166 20.3414 87.8786 20.3678C87.6405 20.3943 87.4224 20.4075 87.224 20.4075Z" fill="black"/>
<path d="M95.519 20.5265C94.4082 20.5265 93.4363 20.2752 92.6033 19.7728C91.7702 19.2703 91.1223 18.5893 90.6595 17.7298C90.1966 16.8703 89.9652 15.9182 89.9652 14.8736C89.9652 13.7893 90.1966 12.8306 90.6595 11.9975C91.1355 11.1512 91.7768 10.4835 92.5834 9.9942C93.4033 9.50494 94.3157 9.26031 95.3206 9.26031C96.1669 9.26031 96.9074 9.39915 97.5421 9.67684C98.1901 9.95453 98.7388 10.338 99.1884 10.8273C99.638 11.3165 99.9818 11.8785 100.22 12.5132C100.458 13.1347 100.577 13.8091 100.577 14.5364C100.577 14.7215 100.564 14.9132 100.537 15.1116C100.524 15.3099 100.491 15.4818 100.438 15.6273H92.1074V13.6438H98.9702L97.7405 14.576C97.8595 13.9678 97.8264 13.4256 97.6413 12.9496C97.4694 12.4736 97.1785 12.0967 96.7686 11.819C96.3719 11.5413 95.8892 11.4025 95.3206 11.4025C94.7785 11.4025 94.2958 11.5413 93.8727 11.819C93.4496 12.0835 93.1256 12.4802 92.9008 13.0091C92.6892 13.5248 92.6099 14.1529 92.6628 14.8934C92.6099 15.5546 92.6958 16.143 92.9206 16.6587C93.1586 17.1612 93.5024 17.5513 93.952 17.8289C94.4148 18.1066 94.9438 18.2455 95.5388 18.2455C96.1339 18.2455 96.6363 18.1199 97.0463 17.8686C97.4694 17.6174 97.8 17.2802 98.038 16.857L100.14 17.8885C99.9289 18.4042 99.5983 18.8604 99.1488 19.2571C98.6992 19.6538 98.1636 19.9645 97.5421 20.1893C96.9339 20.4141 96.2595 20.5265 95.519 20.5265Z" fill="black"/>
<path d="M107.743 20.5265C106.672 20.5265 105.707 20.2819 104.847 19.7926C104.001 19.2901 103.333 18.6157 102.844 17.7694C102.355 16.9099 102.11 15.9446 102.11 14.8736C102.11 13.8025 102.355 12.8438 102.844 11.9975C103.333 11.1512 104.001 10.4835 104.847 9.9942C105.707 9.50494 106.672 9.26031 107.743 9.26031C108.51 9.26031 109.224 9.39915 109.885 9.67684C110.547 9.94131 111.115 10.3116 111.591 10.7876C112.08 11.2504 112.431 11.8058 112.642 12.4537L110.361 13.4455C110.163 12.9033 109.826 12.4669 109.35 12.1364C108.887 11.8058 108.352 11.6405 107.743 11.6405C107.175 11.6405 106.666 11.7793 106.216 12.057C105.78 12.3347 105.436 12.7182 105.185 13.2074C104.933 13.6967 104.808 14.2587 104.808 14.8934C104.808 15.5281 104.933 16.0901 105.185 16.5794C105.436 17.0686 105.78 17.4521 106.216 17.7298C106.666 18.0075 107.175 18.1463 107.743 18.1463C108.365 18.1463 108.907 17.981 109.37 17.6504C109.833 17.3199 110.163 16.8769 110.361 16.3215L112.642 17.3529C112.431 17.9612 112.087 18.5099 111.611 18.9992C111.135 19.4752 110.566 19.8521 109.905 20.1298C109.244 20.3943 108.523 20.5265 107.743 20.5265Z" fill="black"/>
<path d="M114.614 20.2885V5.27351H117.212V11.6207L116.855 11.2438C117.107 10.5959 117.517 10.1066 118.085 9.77602C118.667 9.43221 119.341 9.26031 120.108 9.26031C120.902 9.26031 121.602 9.43221 122.211 9.77602C122.832 10.1198 123.315 10.6025 123.659 11.224C124.002 11.8322 124.174 12.5397 124.174 13.3463V20.2885H121.576V13.9612C121.576 13.4851 121.483 13.0752 121.298 12.7314C121.113 12.3876 120.855 12.1231 120.525 11.938C120.207 11.7397 119.831 11.6405 119.394 11.6405C118.971 11.6405 118.594 11.7397 118.264 11.938C117.933 12.1231 117.675 12.3876 117.49 12.7314C117.305 13.0752 117.212 13.4851 117.212 13.9612V20.2885H114.614Z" fill="black"/>
<path d="M127.601 20.2885V17.5116H130.22V20.2885H127.601Z" fill="black"/>
<path d="M139.064 20.5265C137.993 20.5265 137.028 20.2819 136.169 19.7926C135.322 19.2901 134.655 18.6157 134.165 17.7694C133.676 16.9099 133.431 15.9446 133.431 14.8736C133.431 13.8025 133.676 12.8438 134.165 11.9975C134.655 11.1512 135.322 10.4835 136.169 9.9942C137.028 9.50494 137.993 9.26031 139.064 9.26031C139.831 9.26031 140.545 9.39915 141.207 9.67684C141.868 9.94131 142.436 10.3116 142.912 10.7876C143.402 11.2504 143.752 11.8058 143.964 12.4537L141.683 13.4455C141.484 12.9033 141.147 12.4669 140.671 12.1364C140.208 11.8058 139.673 11.6405 139.064 11.6405C138.496 11.6405 137.987 11.7793 137.537 12.057C137.101 12.3347 136.757 12.7182 136.506 13.2074C136.255 13.6967 136.129 14.2587 136.129 14.8934C136.129 15.5281 136.255 16.0901 136.506 16.5794C136.757 17.0686 137.101 17.4521 137.537 17.7298C137.987 18.0075 138.496 18.1463 139.064 18.1463C139.686 18.1463 140.228 17.981 140.691 17.6504C141.154 17.3199 141.484 16.8769 141.683 16.3215L143.964 17.3529C143.752 17.9612 143.408 18.5099 142.932 18.9992C142.456 19.4752 141.888 19.8521 141.226 20.1298C140.565 20.3943 139.845 20.5265 139.064 20.5265Z" fill="black"/>
<path d="M151.211 20.5265C150.153 20.5265 149.188 20.2819 148.315 19.7926C147.456 19.3033 146.768 18.6356 146.253 17.7893C145.75 16.943 145.499 15.9777 145.499 14.8934C145.499 13.8091 145.75 12.8438 146.253 11.9975C146.768 11.1512 147.456 10.4835 148.315 9.9942C149.175 9.50494 150.14 9.26031 151.211 9.26031C152.269 9.26031 153.228 9.50494 154.087 9.9942C154.947 10.4835 155.628 11.1512 156.13 11.9975C156.646 12.8306 156.904 13.7959 156.904 14.8934C156.904 15.9777 156.646 16.943 156.13 17.7893C155.615 18.6356 154.927 19.3033 154.067 19.7926C153.208 20.2819 152.256 20.5265 151.211 20.5265ZM151.211 18.1463C151.793 18.1463 152.302 18.0075 152.739 17.7298C153.188 17.4521 153.539 17.0686 153.79 16.5794C154.054 16.0769 154.186 15.5149 154.186 14.8934C154.186 14.2587 154.054 13.7033 153.79 13.2273C153.539 12.738 153.188 12.3545 152.739 12.0769C152.302 11.7859 151.793 11.6405 151.211 11.6405C150.616 11.6405 150.094 11.7859 149.644 12.0769C149.195 12.3545 148.838 12.738 148.573 13.2273C148.322 13.7033 148.196 14.2587 148.196 14.8934C148.196 15.5149 148.322 16.0769 148.573 16.5794C148.838 17.0686 149.195 17.4521 149.644 17.7298C150.094 18.0075 150.616 18.1463 151.211 18.1463Z" fill="black"/>
<path d="M158.874 20.2885V9.49833H161.314V11.9975L161.036 11.581C161.235 10.8008 161.631 10.219 162.226 9.83552C162.821 9.45205 163.522 9.26031 164.329 9.26031C165.215 9.26031 165.995 9.49172 166.669 9.95453C167.344 10.4173 167.78 11.0256 167.978 11.7793L167.245 11.8388C167.575 10.9793 168.071 10.338 168.732 9.91486C169.393 9.47849 170.154 9.26031 171.013 9.26031C171.78 9.26031 172.461 9.43221 173.056 9.77602C173.664 10.1198 174.141 10.6025 174.484 11.224C174.828 11.8322 175 12.5397 175 13.3463V20.2885H172.402V13.9612C172.402 13.4851 172.316 13.0752 172.144 12.7314C171.972 12.3876 171.734 12.1231 171.43 11.938C171.126 11.7397 170.755 11.6405 170.319 11.6405C169.909 11.6405 169.545 11.7397 169.228 11.938C168.911 12.1231 168.666 12.3876 168.494 12.7314C168.322 13.0752 168.236 13.4851 168.236 13.9612V20.2885H165.638V13.9612C165.638 13.4851 165.552 13.0752 165.38 12.7314C165.208 12.3876 164.964 12.1231 164.646 11.938C164.342 11.7397 163.978 11.6405 163.555 11.6405C163.145 11.6405 162.782 11.7397 162.464 11.938C162.147 12.1231 161.902 12.3876 161.731 12.7314C161.559 13.0752 161.473 13.4851 161.473 13.9612V20.2885H158.874Z" fill="black"/>
<defs>
<clipPath id="clip0_0_455">
<rect width="29.6184" height="24.6361" fill="white" transform="translate(0 0.581936)"/>
</clipPath>
</defs>
</svg>
