<svg width="51" height="50" viewBox="0 0 51 50" fill="none" xmlns="http://www.w3.org/2000/svg">
<path d="M24.9464 4.85059C25.6803 4.85067 26.2735 5.44425 26.2736 6.17676C26.2736 6.91098 25.6787 7.5048 24.9464 7.50488H10.8185C9.52637 7.50488 8.4679 8.56243 8.4679 9.85449V40.1455C8.46802 41.4375 9.52645 42.4951 10.8185 42.4951L41.1134 42.4971C42.4023 42.497 43.463 41.4384 43.463 40.1465V26.123C43.463 25.3911 44.056 24.795 44.7872 24.7949C45.5215 24.7949 46.1154 25.3907 46.1154 26.123V40.1465C46.1154 42.9034 43.8669 45.1504 41.1115 45.1504H10.8185C8.06154 45.1504 5.81458 42.9035 5.81458 40.1465V9.85449C5.81458 7.09761 8.06137 4.85059 10.8185 4.85059H24.9464ZM35.5372 6.3125C37.4888 4.36269 40.6625 4.36261 42.6124 6.3125L44.6534 8.35352C46.5917 10.2934 46.6007 13.469 44.6573 15.4189L27.2716 32.8662C26.1277 34.0134 24.837 34.7525 23.2697 35.1523L15.4718 37.1426C14.5194 37.3852 13.5823 36.5277 13.8761 35.4746L15.8341 27.7471L15.9122 27.4561C16.3253 26.0178 17.04 24.8068 18.1095 23.7373L32.5294 9.32031L35.5372 6.3125ZM19.9855 25.6172C19.1673 26.4353 18.6872 27.2763 18.4044 28.3945L16.9777 34.0244L22.6163 32.585C23.7333 32.3005 24.5833 31.8175 25.3947 31.0029L38.84 17.5078L33.4669 12.1348L19.9855 25.6172ZM40.7325 8.18848C39.819 7.27537 38.3219 7.27535 37.4103 8.18848L35.3409 10.2568L40.713 15.6289L42.7804 13.5537C43.6939 12.6386 43.6976 11.1511 42.7775 10.2295L40.7325 8.18848Z" fill="#3798FF" stroke="#208CFF" stroke-width="0.3"/>
</svg>
