<svg width="12" height="19" viewBox="0 0 12 19" fill="none" xmlns="http://www.w3.org/2000/svg">
<path d="M2.06142 18.8302C1.62845 18.8302 1.26196 18.6802 0.961964 18.3802C0.661963 18.0802 0.511963 17.7137 0.511963 17.2807V2.37966C0.511963 1.94669 0.661963 1.5802 0.961964 1.2802C1.26196 0.980201 1.62845 0.8302 2.06142 0.8302H10.1053C10.5383 0.8302 10.9048 0.980201 11.2048 1.2802C11.5048 1.5802 11.6548 1.94669 11.6548 2.37966V17.2807C11.6548 17.7137 11.5048 18.0802 11.2048 18.3802C10.9048 18.6802 10.5383 18.8302 10.1053 18.8302H2.06142V18.8302ZM1.79766 14.7753V17.2808C1.79766 17.3467 1.82513 17.4072 1.88007 17.4621C1.93503 17.5171 1.99548 17.5445 2.06142 17.5445H10.1053C10.1713 17.5445 10.2317 17.5171 10.2867 17.4621C10.3416 17.4072 10.3691 17.3467 10.3691 17.2808V14.7753H1.79766ZM6.08338 16.9181C6.29327 16.9181 6.47211 16.8442 6.61991 16.6964C6.76771 16.5486 6.84161 16.3698 6.84161 16.1599C6.84161 15.95 6.76771 15.7712 6.61991 15.6234C6.47211 15.4755 6.29327 15.4016 6.08338 15.4016C5.8735 15.4016 5.69465 15.4755 5.54685 15.6233C5.39905 15.7711 5.32515 15.95 5.32515 16.1599C5.32515 16.3698 5.39905 16.5486 5.54685 16.6964C5.69465 16.8442 5.8735 16.9181 6.08338 16.9181V16.9181ZM1.79766 13.4896H10.3691V4.47302H1.79766V13.4896ZM1.79766 3.18735H10.3691V2.37966C10.3691 2.31372 10.3416 2.25327 10.2867 2.19831C10.2317 2.14337 10.1713 2.1159 10.1053 2.1159H2.06142C1.99548 2.1159 1.93503 2.14337 1.88007 2.19831C1.82513 2.25327 1.79766 2.31372 1.79766 2.37966V3.18735Z" fill="#9AA5B6"/>
</svg>
