<svg width="16" height="18" viewBox="0 0 16 18" fill="none" xmlns="http://www.w3.org/2000/svg">
<mask id="mask0_12_626" style="mask-type:luminance" maskUnits="userSpaceOnUse" x="0" y="1" width="16" height="17">
<path d="M16 1.4541H0V17.4541H16V1.4541Z" fill="white"/>
</mask>
<g mask="url(#mask0_12_626)">
<path d="M6.05958 7.45413C6.21631 7.00857 6.52568 6.63287 6.93288 6.39355C7.34008 6.15423 7.81884 6.06675 8.28436 6.1466C8.74988 6.22645 9.17212 6.46848 9.47629 6.82981C9.78047 7.19115 9.94695 7.64848 9.94624 8.12079C9.94624 9.45413 7.94624 10.1208 7.94624 10.1208M7.99968 12.7874H8.00635M14.6664 9.45407C14.6664 13.136 11.6816 16.1208 7.99968 16.1208C4.31778 16.1208 1.33301 13.136 1.33301 9.45407C1.33301 5.77218 4.31778 2.78741 7.99968 2.78741C11.6816 2.78741 14.6664 5.77218 14.6664 9.45407Z" stroke="#3F3F46" stroke-width="1.5" stroke-linecap="round" stroke-linejoin="round"/>
</g>
</svg>
