<svg width="15" height="16" viewBox="0 0 15 16" fill="none" xmlns="http://www.w3.org/2000/svg">
<path d="M7.5 9.35559C8.52097 9.35559 9.53334 9.4761 10.5371 9.7179C11.4156 9.92953 12.2878 10.234 13.1533 10.631L13.5234 10.8068C13.9642 11.0291 14.3165 11.3465 14.5801 11.7599C14.8436 12.1732 14.9746 12.6226 14.9746 13.1075V15.3048H0.0253906V13.1075C0.0253906 12.6226 0.15642 12.1732 0.419922 11.7599C0.650518 11.3982 0.949181 11.1101 1.31543 10.8947L1.47656 10.8068C2.46346 10.3229 3.45904 9.95973 4.46289 9.7179C5.46665 9.47611 6.47904 9.35559 7.5 9.35559ZM7.5 10.8048C6.58628 10.8048 5.68056 10.9149 4.7832 11.1339C3.88598 11.353 3.00563 11.6746 2.14258 12.0997L2.1416 12.1007C1.93736 12.2113 1.77497 12.3545 1.65527 12.5304C1.53522 12.7068 1.47461 12.8998 1.47461 13.1075V13.8556H13.5254V13.1075C13.5254 12.8998 13.4648 12.7068 13.3447 12.5304C13.225 12.3545 13.0626 12.2113 12.8584 12.1007L12.8574 12.0997L12.5322 11.9454C11.7735 11.5961 11.0017 11.3255 10.2168 11.1339C9.31945 10.9149 8.41371 10.8048 7.5 10.8048ZM7.5 0.740356C8.45579 0.740362 9.27334 1.0801 9.9541 1.76086C10.6349 2.44161 10.9746 3.25916 10.9746 4.21497C10.9746 5.17076 10.6349 5.98831 9.9541 6.66907C9.27334 7.34981 8.45579 7.68957 7.5 7.68958C6.54421 7.68958 5.72666 7.3498 5.0459 6.66907C4.36514 5.98831 4.0254 5.17076 4.02539 4.21497C4.02539 3.25915 4.36513 2.44161 5.0459 1.76086C5.72666 1.0801 6.5442 0.740356 7.5 0.740356ZM7.5 2.18958C6.94332 2.18958 6.46565 2.38798 6.06934 2.7843C5.67302 3.18062 5.47461 3.65828 5.47461 4.21497C5.47462 4.77142 5.67333 5.24843 6.06934 5.64465C6.46565 6.04097 6.94332 6.24036 7.5 6.24036C8.05667 6.24035 8.53338 6.04097 8.92969 5.64465C9.326 5.24834 9.52538 4.77164 9.52539 4.21497C9.52539 3.65828 9.32601 3.18062 8.92969 2.7843C8.53347 2.3883 8.05646 2.18958 7.5 2.18958Z" fill="#9AA5B6" stroke="white" stroke-width="0.05"/>
</svg>
