<svg width="51" height="50" viewBox="0 0 51 50" fill="none" xmlns="http://www.w3.org/2000/svg">
<path d="M32.4268 1.25781C33.251 0.43553 34.5535 0.383967 35.4375 1.10352L35.6084 1.25781C48.7177 14.3705 48.717 35.6305 35.6074 48.7402C34.7284 49.6193 33.3068 49.6193 32.4277 48.7402H32.4268C31.5484 47.864 31.5484 46.4398 32.4268 45.5635L32.4277 45.5625C43.7844 34.2054 43.7846 15.7952 32.4277 4.4375C31.5488 3.55861 31.5482 2.13691 32.4268 1.25781ZM23.5391 6.9541C24.4152 6.07588 25.8395 6.07608 26.7158 6.9541L26.7168 6.95508C36.4923 16.7308 36.4922 32.5785 26.7168 42.3535L26.7158 42.3545C25.8395 43.2327 24.4153 43.2328 23.5391 42.3545L23.5381 42.3535L23.3838 42.1826C22.6635 41.301 22.7149 39.9982 23.5381 39.1768L23.5391 39.1758C31.559 31.1556 31.559 18.153 23.5391 10.1328L23.5381 10.1318C22.66 9.25553 22.6598 7.83127 23.5381 6.95508L23.5391 6.9541ZM14.6475 12.6504C15.5264 11.7738 16.949 11.7732 17.8281 12.6494V12.6504C24.2659 19.0883 24.2658 29.5294 17.8281 35.9668C16.9491 36.8459 15.5265 36.8459 14.6475 35.9668C13.7714 35.0904 13.7712 33.6654 14.6475 32.7891C19.3297 28.104 19.33 20.5128 14.6475 15.8301C13.7715 14.9511 13.7715 13.5294 14.6475 12.6504ZM5.75977 18.3447C6.63619 17.4687 8.06124 17.4685 8.9375 18.3447C12.0405 21.4478 12.0404 26.4778 8.9375 29.5811L8.93652 29.582C8.06029 30.4601 6.63598 30.4601 5.75977 29.582V29.5811L5.60449 29.4102C4.8835 28.5264 4.93569 27.2245 5.75977 26.4004C7.10443 25.0554 7.10464 22.8703 5.75977 21.5254C4.8807 20.6463 4.8807 19.2238 5.75977 18.3447Z" fill="#208CFF" stroke="#101010" stroke-width="1.2"/>
</svg>
